# xmcd
#
# Track frame offsets:
#	150
#	17472
#	40675
#	49484
#	66516
#	83014
#	98565
#	107966
#	121998
#
# Disc length: 1912 seconds
# Revision: 0
# Processed by: cddbd v1.5.2PL0 Copyright (c) Steve Scherf et al.
# Submitted via: dBpowerAMP V12.0
#
DISCID=6f077609
DTITLE=Bryant, Carly - A Pocket Full Of Rye
DYEAR=2009
DGENRE=Blues
TTITLE0=What You Say
TTITLE1=My Big Day
TTITLE2=mmm..mmm..mmm
TTITLE3=Fragility Lies
TTITLE4=On and On and On
TTITLE5=Time Is Changing
TTITLE6=I Don't Think That You Noticed Me
TTITLE7=Read Read Read
TTITLE8=These Are The Boys That I Like
EXTD=
EXTT0=
EXTT1=
EXTT2=
EXTT3=
EXTT4=
EXTT5=
EXTT6=
EXTT7=
EXTT8=
PLAYORDER=
